# xmcd CD database file
#
# Track frame offsets:
#	150
#	14123
#	36676
#	83169
#	103374
#	116186
#	134431
#	153757
#	179138
#	193109
#
# Disc length: 2762 seconds
#
# Revision: 0
# Processed by: cddbd v1.5.2PL0 Copyright (c) Steve Scherf et al.
# Submitted via: CDex 1.70beta2
#
DISCID=990ac80a
DTITLE=Variuos - Hard bop  - brzmienie pewnej epoki
DYEAR=2009
DGENRE=Jazz
TTITLE0=Gene Ammons - Concetration
TTITLE1=Sonny Rollins - Soft Shoe
TTITLE2=Art Blakey - Moanin'
TTITLE3=Sonny Rollins - Moving Out
TTITLE4=Horace Silver - Safari
TTITLE5=Daahoud - Clifford Brown
TTITLE6=Lorinesque - Tal Farlow
TTITLE7=Zoot Sims - Morning Fun
TTITLE8=Gene Ammons - Red Top
TTITLE9=Barney Kessel - Lullaby Of Birdland
EXTD=YEAR: 2009
EXTT0=
EXTT1=
EXTT2=
EXTT3=
EXTT4=
EXTT5=
EXTT6=
EXTT7=
EXTT8=
EXTT9=
PLAYORDER=
